<svg width="20" height="20" viewBox="0 0 20 20" fill="none" xmlns="http://www.w3.org/2000/svg">
<path d="M3.57725 15.2432C3.42101 15.3995 3.33326 15.6114 3.33331 15.8324C3.33337 16.0535 3.42121 16.2654 3.57753 16.4216C3.73385 16.5779 3.94583 16.6656 4.16685 16.6655C4.38786 16.6655 4.5998 16.5777 4.75604 16.4213L9.90118 11.277C9.91408 11.264 9.92941 11.2538 9.94628 11.2468C9.96315 11.2398 9.98124 11.2362 9.9995 11.2362C10.0178 11.2362 10.0359 11.2398 10.0527 11.2468C10.0696 11.2538 10.0849 11.264 10.0978 11.277L15.243 16.4225C15.3203 16.4999 15.4122 16.5613 15.5133 16.6032C15.6144 16.6451 15.7227 16.6666 15.8322 16.6667C15.9416 16.6667 16.05 16.6452 16.1511 16.6033C16.2522 16.5615 16.3441 16.5001 16.4215 16.4227C16.4989 16.3454 16.5603 16.2535 16.6022 16.1524C16.6441 16.0513 16.6657 15.943 16.6657 15.8336C16.6657 15.7241 16.6442 15.6158 16.6023 15.5147C16.5605 15.4135 16.4991 15.3217 16.4218 15.2443L11.2772 10.0977C11.2642 10.0848 11.254 10.0695 11.247 10.0526C11.24 10.0357 11.2364 10.0176 11.2364 9.99936C11.2364 9.98109 11.24 9.963 11.247 9.94613C11.254 9.92926 11.2642 9.91394 11.2772 9.90104L16.4229 4.75612C16.5791 4.59966 16.6668 4.38754 16.6666 4.16643C16.6665 3.94532 16.5785 3.73333 16.422 3.5771C16.2656 3.42086 16.0534 3.33317 15.8323 3.33333C15.6112 3.33348 15.3992 3.42147 15.243 3.57793L10.0978 8.72174C10.0849 8.73467 10.0696 8.74493 10.0527 8.75193C10.0359 8.75893 10.0178 8.76254 9.9995 8.76254C9.98124 8.76254 9.96315 8.75893 9.94628 8.75193C9.92941 8.74493 9.91408 8.73467 9.90118 8.72174L4.75604 3.57793C4.67868 3.50053 4.58683 3.43913 4.48573 3.39723C4.38464 3.35533 4.27628 3.33375 4.16685 3.33372C3.94583 3.33367 3.73385 3.42141 3.57753 3.57765C3.42121 3.73389 3.33337 3.94582 3.33331 4.16683C3.33326 4.38783 3.42101 4.59981 3.57725 4.75612L8.72183 9.90104C8.73476 9.91394 8.74503 9.92926 8.75203 9.94613C8.75903 9.963 8.76263 9.98109 8.76263 9.99936C8.76263 10.0176 8.75903 10.0357 8.75203 10.0526C8.74503 10.0695 8.73476 10.0848 8.72183 10.0977L3.57725 15.2432Z" fill="#EB5E58"/>
</svg>
